<svg width="47" height="50" viewBox="0 0 47 50" fill="none" xmlns="http://www.w3.org/2000/svg">
<path d="M7.78409 9.90909L14.8153 32.0114H15.0852L22.1307 9.90909H28.9489L18.9205 39H10.9943L0.951705 9.90909H7.78409Z" fill="#1452F2"/>
<path d="M32.8182 28.3125C32.6193 27.6212 32.34 27.0104 31.9801 26.4801C31.6203 25.9403 31.1799 25.4858 30.6591 25.1165C30.1477 24.7377 29.5606 24.4489 28.8977 24.25C28.2443 24.0511 27.5199 23.9517 26.7244 23.9517C25.2377 23.9517 23.9309 24.321 22.804 25.0597C21.6866 25.7983 20.8153 26.8731 20.1903 28.2841C19.5653 29.6856 19.2528 31.3996 19.2528 33.4261C19.2528 35.4527 19.5606 37.1761 20.1761 38.5966C20.7917 40.017 21.6629 41.1013 22.7898 41.8494C23.9167 42.5881 25.2472 42.9574 26.7812 42.9574C28.1733 42.9574 29.3617 42.7112 30.3466 42.2188C31.3409 41.7169 32.0985 41.0114 32.6193 40.1023C33.1496 39.1932 33.4148 38.1184 33.4148 36.8778L34.6648 37.0625H27.1648V32.4318H39.3381V36.0966C39.3381 38.6534 38.7983 40.8504 37.7188 42.6875C36.6392 44.5152 35.1525 45.9261 33.2585 46.9205C31.3646 47.9053 29.196 48.3977 26.7528 48.3977C24.0256 48.3977 21.6297 47.7964 19.5653 46.5938C17.5009 45.3816 15.8911 43.6629 14.7358 41.4375C13.59 39.2027 13.017 36.5511 13.017 33.483C13.017 31.125 13.358 29.0227 14.0398 27.1761C14.7311 25.3201 15.697 23.7481 16.9375 22.4602C18.178 21.1723 19.6222 20.1922 21.2699 19.5199C22.9176 18.8475 24.7027 18.5114 26.625 18.5114C28.2727 18.5114 29.8068 18.7528 31.2273 19.2358C32.6477 19.7093 33.9072 20.3816 35.0057 21.2528C36.1136 22.1241 37.018 23.161 37.7188 24.3636C38.4195 25.5568 38.8693 26.8731 39.0682 28.3125H32.8182Z" fill="#1452F2"/>
</svg>
